<svg width="70" height="70" viewBox="0 0 70 70" fill="none" xmlns="http://www.w3.org/2000/svg">
<g opacity="0.6" clip-path="url(#clip0_30_414)">
<path d="M67.4038 49.8597C66.071 49.7583 63.3039 51.2649 62.5361 51.6416C59.827 53.0034 56.0893 55.133 53.6265 56.828C53.4527 56.9439 53.2209 57.1033 53.047 57.2047C51.946 57.9145 50.7726 58.3926 49.4687 58.6679C42.3121 60.189 31.8814 60.3629 31.8814 60.3629L31.2729 60.3918C30.8093 60.4208 30.4037 60.1021 30.3457 59.653C30.2733 59.1604 30.6355 58.7113 31.1425 58.6679L46.6582 57.1902C48.3677 57.0018 49.7295 55.4083 49.5412 53.6119C49.3528 51.8155 47.7013 50.4971 45.9918 50.6855L32.2001 50.5116C31.2584 50.4971 29.7518 50.2653 28.8536 50.0046C19.9585 47.4114 14.9459 49.8452 12.2803 50.9752C11.6863 49.9901 10.5563 49.3526 9.29596 49.4396L3.34175 49.8307C1.35702 49.9611 -0.135154 51.6126 0.00971686 53.5249L0.965867 66.7372C1.09625 68.6495 2.82022 70.0837 4.79047 69.9533L10.7447 69.5622C12.005 69.4753 13.0191 68.7074 13.4682 67.6499L39.603 68.7799C42.5149 69.0841 45.2385 68.7364 47.8027 67.3891L48.556 66.998L68.302 55.4372C69.2726 54.8722 69.968 53.8871 69.997 52.7861C70.0549 51.4678 69.2871 49.9901 67.4038 49.8597ZM6.97802 66.8241C5.86251 66.8241 4.94982 65.9549 4.94982 64.8684C4.94982 63.7818 5.86251 62.9126 6.97802 62.9126C8.09353 62.9126 9.00622 63.7818 9.00622 64.8684C9.00622 65.9549 8.09353 66.8241 6.97802 66.8241Z" fill="white"/>
<path d="M53.3368 53.9741C55.3505 52.5688 59.4793 50.3233 61.8117 49.1499C62.5216 48.8022 63.2605 48.44 64.0572 48.1647C63.0431 47.4838 61.9566 47.4549 60.8266 47.8895C58.6101 48.7732 54.5247 50.7434 52.4386 51.8734C52.4241 51.9024 52.4096 51.9314 52.4096 51.9604C52.5545 52.395 52.6704 52.8441 52.7138 53.3077C52.7573 53.6843 52.7428 54.0465 52.7283 54.4087C52.9167 54.2638 53.1195 54.1189 53.3368 53.9741Z" fill="white"/>
<path d="M58.668 46.5712C57.654 45.9193 56.5819 45.8903 55.4809 46.3249C54.1046 46.861 51.0478 47.8606 49.686 48.5849C50.2655 48.9471 50.7871 49.3962 51.2362 49.9178C51.3231 49.8598 51.41 49.7874 51.5114 49.7294L52.511 49.1789C53.9597 48.3821 57.0745 47.2811 58.668 46.5712Z" fill="white"/>
<path d="M56.6833 20.871C60.5514 19.2195 63.2749 15.3659 63.2749 10.8894C63.2749 4.89176 58.4073 0.0385742 52.4241 0.0385742C46.4409 0.0385742 41.5732 4.90624 41.5732 10.8894C41.5732 10.9474 41.5877 11.0053 41.5877 11.0633C48.0345 11.7442 53.5686 15.5253 56.6833 20.871Z" fill="white"/>
<path d="M39.5161 46.5857C48.2228 46.5857 55.278 39.5305 55.278 30.8237C55.278 22.117 48.2228 15.0618 39.5161 15.0618C30.8093 15.0618 23.7541 22.117 23.7541 30.8237C23.7541 39.5305 30.8093 46.5857 39.5161 46.5857ZM34.011 37.0532C34.1558 36.5317 34.3007 36.0101 34.4601 35.5031C34.6484 34.9091 34.8078 34.8367 35.3583 35.1119C36.2999 35.6045 37.2851 35.8653 38.3281 35.9956C38.9945 36.0826 39.6609 36.0101 40.2694 35.7349C41.4284 35.2278 41.6167 33.8805 40.6316 33.0837C40.2984 32.8085 39.9217 32.6057 39.5306 32.4318C38.5165 31.9827 37.4589 31.6495 36.4883 31.07C34.9381 30.1428 33.9385 28.8535 34.0544 26.9702C34.1848 24.8261 35.4017 23.4933 37.3575 22.7834C38.1688 22.4937 38.1688 22.4937 38.1833 21.6534C38.1833 21.3637 38.1833 21.0739 38.1833 20.7987C38.1977 20.1612 38.3136 20.0453 38.9366 20.0308C39.1394 20.0308 39.3277 20.0308 39.5306 20.0308C40.8779 20.0308 40.8779 20.0308 40.8923 21.3781C40.8923 22.3343 40.8923 22.3343 41.8485 22.4937C42.5728 22.6096 43.2827 22.8269 43.9491 23.1166C44.3258 23.276 44.4562 23.5367 44.3548 23.9279C44.1809 24.5074 44.0216 25.1013 43.8332 25.6808C43.6594 26.2313 43.4855 26.3038 42.9495 26.0575C41.892 25.5504 40.7764 25.3331 39.6175 25.3911C39.3132 25.4056 39.009 25.449 38.7338 25.5794C37.7197 26.014 37.5603 27.1295 38.415 27.8249C38.8497 28.1726 39.3422 28.4189 39.8638 28.6362C40.762 29.0129 41.6602 29.3605 42.5004 29.8241C45.2095 31.3163 45.9339 34.7208 44.0216 37.0242C43.3262 37.8645 42.4425 38.4295 41.3994 38.7047C40.9503 38.8351 40.733 39.0669 40.762 39.545C40.7764 40.0086 40.762 40.4722 40.762 40.9357C40.762 41.3559 40.5447 41.5732 40.139 41.5877C39.632 41.6022 39.1394 41.6022 38.6324 41.5877C38.1977 41.5732 37.9804 41.3269 37.9804 40.9068C37.9804 40.5736 37.9804 40.2259 37.9659 39.8927C37.9515 39.1393 37.937 39.1104 37.2126 38.9945C36.2854 38.8496 35.3872 38.6323 34.5325 38.2267C33.8806 37.9224 33.8226 37.7486 34.011 37.0532Z" fill="white"/>
</g>
<defs>
<clipPath id="clip0_30_414">
<rect width="70" height="70" fill="white"/>
</clipPath>
</defs>
</svg>
