<svg width="80" height="80" viewBox="0 0 80 80" fill="none" xmlns="http://www.w3.org/2000/svg">
<g opacity="0.6" clip-path="url(#clip0_30_371)">
<path d="M52.6667 23.9778C52.3726 23.9765 52.0818 23.917 51.811 23.8025C51.5401 23.6881 51.2947 23.5211 51.0889 23.3111L34.5778 6.79998C34.1623 6.37563 33.9323 5.80361 33.9386 5.20974C33.9449 4.61588 34.1868 4.04882 34.6111 3.63331C35.0355 3.21781 35.6075 2.98789 36.2013 2.99414C36.7952 3.00039 37.3623 3.2423 37.7778 3.66665L54.3111 20.1778C54.725 20.5941 54.9573 21.1573 54.9573 21.7444C54.9573 22.3315 54.725 22.8947 54.3111 23.3111C54.0975 23.5292 53.8412 23.701 53.5583 23.8157C53.2754 23.9304 52.9719 23.9856 52.6667 23.9778Z" fill="white"/>
<path d="M23.7556 52.8667C23.1726 52.8642 22.6139 52.6327 22.2 52.2222L5.66666 35.7111C5.24821 35.2838 5.01664 34.7078 5.02289 34.1097C5.02914 33.5117 5.2727 32.9406 5.7 32.5222C6.12729 32.1037 6.70331 31.8722 7.30135 31.8784C7.89938 31.8847 8.47043 32.1282 8.88889 32.5555L25.4 49.0666C25.7134 49.3775 25.9271 49.7746 26.014 50.2074C26.1008 50.6401 26.0568 51.089 25.8875 51.4966C25.7182 51.9043 25.4314 52.2523 25.0636 52.4963C24.6958 52.7403 24.2636 52.8692 23.8222 52.8667H23.7556Z" fill="white"/>
<path d="M45.8667 68.8889L46.9778 72.8222C47.0557 73.1135 47.066 73.4187 47.0079 73.7145C46.9499 74.0103 46.8249 74.289 46.6427 74.5291C46.4604 74.7693 46.2257 74.9646 45.9564 75.1001C45.6871 75.2356 45.3904 75.3078 45.0889 75.3111H8.15557C7.85411 75.3078 7.55739 75.2356 7.28809 75.1001C7.0188 74.9646 6.78405 74.7693 6.6018 74.5291C6.41954 74.289 6.2946 74.0103 6.23651 73.7145C6.17843 73.4187 6.18875 73.1135 6.26668 72.8222L7.40001 68.8889C7.60832 68.1874 8.04026 67.5732 8.63 67.1399C9.21974 66.7066 9.93496 66.478 10.6667 66.4889H42.5778C43.3116 66.4804 44.0284 66.7096 44.6212 67.1422C45.214 67.5748 45.6509 68.1875 45.8667 68.8889Z" fill="white"/>
<path d="M71.5334 62.4L40.9556 32.1333L47.6223 25.4667L32.2667 10L12.4 29.8667L27.8 45.2889L34.9334 38.1778L65.4667 68.4C65.8617 68.7989 66.3327 69.1145 66.8518 69.3283C67.3709 69.542 67.9276 69.6495 68.4889 69.6444C69.3318 69.6528 70.1581 69.41 70.8625 68.947C71.5669 68.484 72.1174 67.8217 72.444 67.0446C72.7706 66.2675 72.8583 65.4108 72.6962 64.5836C72.534 63.7564 72.1292 62.9962 71.5334 62.4Z" fill="white"/>
</g>
<defs>
<clipPath id="clip0_30_371">
<rect width="80" height="80" fill="white"/>
</clipPath>
</defs>
</svg>
