<svg width="36" height="36" viewBox="0 0 36 36" fill="none" xmlns="http://www.w3.org/2000/svg">
<rect width="36" height="36" rx="18" fill="#393939"/>
<path d="M22.2778 17.8056C22.2778 17.9537 22.25 18.097 22.1944 18.2356C22.1389 18.3748 22.0648 18.4907 21.9722 18.5833L16.8611 23.6944C16.6574 23.8981 16.3981 24 16.0833 24C15.7685 24 15.5093 23.8981 15.3056 23.6944C15.1019 23.4907 15 23.2315 15 22.9167C15 22.6019 15.1019 22.3426 15.3056 22.1389L19.6389 17.8056L15.3056 13.4722C15.1019 13.2685 15 13.0093 15 12.6944C15 12.3796 15.1019 12.1204 15.3056 11.9167C15.5093 11.713 15.7685 11.6111 16.0833 11.6111C16.3981 11.6111 16.6574 11.713 16.8611 11.9167L21.9722 17.0278C22.0833 17.1389 22.1619 17.2593 22.2078 17.3889C22.2544 17.5185 22.2778 17.6574 22.2778 17.8056Z" fill="#FBFBFB"/>
</svg>
