<svg width="36" height="36" viewBox="0 0 36 36" fill="none" xmlns="http://www.w3.org/2000/svg">
<rect width="36" height="36" rx="18" fill="#393939"/>
<path d="M13.7222 17.8056C13.7222 17.9537 13.75 18.097 13.8056 18.2356C13.8611 18.3748 13.9352 18.4907 14.0278 18.5833L19.1389 23.6944C19.3426 23.8981 19.6019 24 19.9167 24C20.2315 24 20.4907 23.8981 20.6944 23.6944C20.8981 23.4907 21 23.2315 21 22.9167C21 22.6019 20.8981 22.3426 20.6944 22.1389L16.3611 17.8056L20.6944 13.4722C20.8981 13.2685 21 13.0093 21 12.6944C21 12.3796 20.8981 12.1204 20.6944 11.9167C20.4907 11.713 20.2315 11.6111 19.9167 11.6111C19.6019 11.6111 19.3426 11.713 19.1389 11.9167L14.0278 17.0278C13.9167 17.1389 13.8381 17.2593 13.7922 17.3889C13.7456 17.5185 13.7222 17.6574 13.7222 17.8056Z" fill="#FBFBFB"/>
</svg>
