<svg width="70" height="70" viewBox="0 0 70 70" fill="none" xmlns="http://www.w3.org/2000/svg">
<g opacity="0.6" clip-path="url(#clip0_19_289)">
<path d="M69.653 34.135L59.3389 11.1364C59.3386 11.1358 59.3383 11.1352 59.338 11.1346L59.3246 11.1047C59.29 11.0277 59.2489 10.9554 59.2034 10.8866C59.1913 10.8679 59.1766 10.8511 59.1639 10.8333C59.1231 10.7766 59.0792 10.7234 59.0318 10.6732C59.0131 10.6536 58.9941 10.6343 58.9745 10.6156C58.9222 10.5661 58.867 10.5203 58.8085 10.4786C58.7932 10.4673 58.7792 10.4549 58.7633 10.4443C58.6898 10.3957 58.6119 10.354 58.5309 10.3181C58.5079 10.3079 58.4839 10.3004 58.4602 10.2913C58.3967 10.2671 58.3322 10.2468 58.2655 10.2309C58.2381 10.2244 58.211 10.2178 58.1833 10.2129C58.092 10.196 57.9992 10.1848 57.9042 10.1848H39.7044C39.393 9.21577 38.7877 8.38004 37.9959 7.77482V5.51277C37.9959 4.65275 37.2985 3.95532 36.4385 3.95532H33.531C32.671 3.95532 31.9736 4.65275 31.9736 5.51277V7.81188C31.2057 8.414 30.6195 9.23602 30.3146 10.1851H12.0653C11.9703 10.1851 11.8778 10.1967 11.7862 10.2132C11.7581 10.2181 11.7314 10.2247 11.7039 10.2312C11.6373 10.2471 11.5725 10.2674 11.5093 10.2917C11.4856 10.3007 11.4616 10.3082 11.4386 10.3184C11.3576 10.3543 11.2797 10.3957 11.2062 10.4446C11.1903 10.4552 11.1763 10.4677 11.161 10.4789C11.1025 10.5206 11.0473 10.5661 10.995 10.6159C10.9751 10.6346 10.9564 10.6539 10.9374 10.6735C10.8897 10.7237 10.8461 10.7773 10.8053 10.8337C10.7922 10.8517 10.7779 10.8685 10.7657 10.8869C10.7203 10.9558 10.6791 11.028 10.6446 11.105L10.6312 11.1349C10.6309 11.1355 10.6305 11.1361 10.6302 11.1367L0.279407 34.2166C0.104349 34.4686 0 34.7736 0 35.1037C0 41.7565 5.41246 47.169 12.0653 47.169C18.7181 47.169 24.1305 41.7565 24.1305 35.1037C24.1305 34.7736 24.0265 34.4689 23.8511 34.2169L14.4706 13.2994H30.3523C30.6659 14.2043 31.2341 14.9889 31.9732 15.5689V54.6239H18.1624C17.5796 54.6239 17.0454 54.9494 16.7781 55.4674L12.4939 63.7739C12.245 64.2567 12.2656 64.8346 12.5481 65.2984C12.8309 65.7622 13.3346 66.0453 13.8781 66.0453H56.091C56.0929 66.045 56.0948 66.0453 56.0972 66.0453C56.9573 66.0453 57.6547 65.3479 57.6547 64.4879C57.6547 64.1826 57.5669 63.8979 57.4152 63.6578L53.1904 55.4674C52.9232 54.9494 52.389 54.6239 51.8062 54.6239H37.9956V15.606C38.7584 15.0226 39.3456 14.2242 39.6661 13.2994H55.4986L46.0059 34.4664C46.0034 34.472 46.0022 34.4776 45.9997 34.4832C45.9925 34.5001 45.9872 34.5175 45.9804 34.5346C45.9523 34.606 45.9299 34.6789 45.9128 34.7524C45.9084 34.7717 45.9028 34.7904 45.8991 34.8097C45.8819 34.8991 45.8732 34.9891 45.872 35.0794C45.872 35.0879 45.8695 35.0953 45.8695 35.1037C45.8695 41.7565 51.2819 47.169 57.9347 47.169C64.5875 47.169 70 41.7565 70 35.1037C70 34.7356 69.8667 34.4016 69.653 34.135ZM20.1366 33.5463H3.99393L12.0653 15.5481L20.1366 33.5463ZM36.8263 11.6903C36.8263 12.6923 36.0111 13.5072 35.0093 13.5072C34.0073 13.5072 33.1921 12.692 33.1921 11.6903C33.1921 10.6882 34.0073 9.87333 35.0093 9.87333C36.0111 9.87302 36.8263 10.6882 36.8263 11.6903ZM49.8322 33.5463L57.9039 15.5481L65.9752 33.5463H49.8322Z" fill="white"/>
</g>
<defs>
<clipPath id="clip0_19_289">
<rect width="70" height="70" fill="white"/>
</clipPath>
</defs>
</svg>
